<svg width="79" height="27" viewBox="0 0 79 27" fill="none" xmlns="http://www.w3.org/2000/svg">
<path d="M19.7011 0.727999L19.7011 5.66L13.0051 5.66L13.0051 26L6.84906 26L6.84906 5.66L0.153063 5.66L0.153063 0.727999L19.7011 0.727999ZM28.9346 26.288C26.9666 26.288 25.1906 25.868 23.6066 25.028C22.0466 24.188 20.8106 22.988 19.8986 21.428C19.0106 19.868 18.5666 18.044 18.5666 15.956C18.5666 13.892 19.0226 12.08 19.9346 10.52C20.8466 8.936 22.0946 7.724 23.6786 6.884C25.2626 6.044 27.0386 5.624 29.0066 5.624C30.9746 5.624 32.7506 6.044 34.3346 6.884C35.9186 7.724 37.1666 8.936 38.0786 10.52C38.9906 12.08 39.4466 13.892 39.4466 15.956C39.4466 18.02 38.9786 19.844 38.0426 21.428C37.1306 22.988 35.8706 24.188 34.2626 25.028C32.6786 25.868 30.9026 26.288 28.9346 26.288ZM28.9346 20.96C30.1106 20.96 31.1066 20.528 31.9226 19.664C32.7626 18.8 33.1826 17.564 33.1826 15.956C33.1826 14.348 32.7746 13.112 31.9586 12.248C31.1666 11.384 30.1826 10.952 29.0066 10.952C27.8066 10.952 26.8106 11.384 26.0186 12.248C25.2266 13.088 24.8306 14.324 24.8306 15.956C24.8306 17.564 25.2146 18.8 25.9826 19.664C26.7746 20.528 27.7586 20.96 28.9346 20.96ZM38.4885 15.956C38.4885 13.868 38.9085 12.044 39.7485 10.484C40.6125 8.924 41.8005 7.724 43.3125 6.884C44.8485 6.044 46.6005 5.624 48.5685 5.624C51.0885 5.624 53.1885 6.284 54.8685 7.604C56.5725 8.924 57.6885 10.784 58.2165 13.184L51.6645 13.184C51.1125 11.648 50.0445 10.88 48.4605 10.88C47.3325 10.88 46.4325 11.324 45.7605 12.212C45.0885 13.076 44.7525 14.324 44.7525 15.956C44.7525 17.588 45.0885 18.848 45.7605 19.736C46.4325 20.6 47.3325 21.032 48.4605 21.032C50.0445 21.032 51.1125 20.264 51.6645 18.728L58.2165 18.728C57.6885 21.08 56.5725 22.928 54.8685 24.272C53.1645 25.616 51.0645 26.288 48.5685 26.288C46.6005 26.288 44.8485 25.868 43.3125 25.028C41.8005 24.188 40.6125 22.988 39.7485 21.428C38.9085 19.868 38.4885 18.044 38.4885 15.956ZM57.2853 15.92C57.2853 13.856 57.6693 12.044 58.4373 10.484C59.2293 8.924 60.2973 7.724 61.6413 6.884C62.9853 6.044 64.4853 5.624 66.1413 5.624C67.5573 5.624 68.7933 5.912 69.8493 6.488C70.9293 7.064 71.7573 7.82 72.3333 8.756L72.3333 5.912L78.4893 5.912L78.4893 26L72.3333 26L72.3333 23.156C71.7333 24.092 70.8933 24.848 69.8133 25.424C68.7573 26 67.5213 26.288 66.1053 26.288C64.4733 26.288 62.9853 25.868 61.6413 25.028C60.2973 24.164 59.2293 22.952 58.4373 21.392C57.6693 19.808 57.2853 17.984 57.2853 15.92ZM72.3333 15.956C72.3333 14.42 71.9013 13.208 71.0373 12.32C70.1973 11.432 69.1653 10.988 67.9413 10.988C66.7173 10.988 65.6733 11.432 64.8093 12.32C63.9693 13.184 63.5493 14.384 63.5493 15.92C63.5493 17.456 63.9693 18.68 64.8093 19.592C65.6733 20.48 66.7173 20.924 67.9413 20.924C69.1653 20.924 70.1973 20.48 71.0373 19.592C71.9013 18.704 72.3333 17.492 72.3333 15.956Z" fill="#95AA88"/>
</svg>
